<?xml version="1.0" standalone="no"?>
<!DOCTYPE svg PUBLIC "-//W3C//DTD SVG 20010904//EN"
 "http://www.w3.org/TR/2001/REC-SVG-20010904/DTD/svg10.dtd">
<svg version="1.0" xmlns="http://www.w3.org/2000/svg"
 width="380.000000pt" height="380.000000pt" viewBox="0 0 380.000000 380.000000"
 preserveAspectRatio="xMidYMid meet">
<metadata>
Created by potrace 1.11, written by Peter Selinger 2001-2013
</metadata>
<g transform="translate(0.000000,380.000000) scale(0.100000,-0.100000)"
fill="#000000" stroke="none">
<path d="M1550 3185 l0 -55 145 0 145 0 1 -82 c1 -46 1 -134 0 -196 l0 -114
334 -673 c184 -369 335 -680 335 -689 0 -15 -68 -16 -841 -16 -462 0 -838 -4
-835 -8 3 -5 -3 -18 -14 -29 -10 -12 -16 -24 -13 -27 4 -3 1 -6 -5 -6 -7 0
-11 -3 -10 -7 1 -5 -5 -22 -15 -39 -9 -17 -13 -34 -10 -37 3 -4 -2 -9 -11 -13
-9 -3 -13 -10 -10 -15 3 -5 0 -9 -6 -9 -6 0 -9 -4 -6 -8 3 -5 -3 -18 -14 -29
-10 -12 -16 -24 -13 -27 4 -3 1 -6 -5 -6 -7 0 -11 -3 -10 -7 1 -5 -5 -22 -15
-39 -9 -17 -13 -34 -10 -37 3 -4 -2 -9 -11 -13 -9 -3 -13 -10 -10 -15 3 -5 0
-9 -5 -9 -6 0 -10 -3 -9 -7 3 -13 -24 -63 -34 -63 -4 0 -7 -3 -6 -7 1 -5 -3
-18 -10 -29 -6 -12 -8 -24 -5 -28 3 -3 1 -6 -6 -6 -7 0 -9 -5 -6 -10 3 -6 -1
-13 -9 -16 -9 -3 -13 -10 -10 -15 3 -5 0 -9 -6 -9 -6 0 -8 -5 -5 -10 3 -6 1
-10 -5 -10 -6 0 -8 -4 -5 -10 3 -5 2 -10 -3 -10 -6 0 -8 -9 -5 -20 3 -11 1
-20 -3 -20 -5 0 -10 -27 -10 -60 0 -33 4 -60 9 -60 5 0 7 -6 4 -14 -3 -8 1
-20 9 -27 8 -6 13 -14 10 -16 -7 -7 74 -83 89 -83 8 0 15 -5 15 -11 0 -5 5 -7
10 -4 6 3 14 3 20 0 12 -7 2448 -7 2461 0 5 4 14 3 19 0 6 -3 10 -1 10 6 0 7
3 9 7 6 8 -9 79 67 101 108 33 62 31 141 -3 205 -11 19 -18 38 -17 42 1 5 -3
8 -9 8 -5 0 -7 5 -4 10 3 6 1 10 -6 10 -7 0 -10 3 -6 6 3 3 -5 23 -18 44 -13
21 -21 41 -18 44 4 3 2 6 -4 6 -10 0 -38 49 -35 63 1 4 -2 7 -8 7 -6 0 -9 3
-8 8 1 4 -3 17 -10 30 -7 12 -10 22 -7 22 3 0 -3 10 -14 22 -11 11 -18 25 -15
30 3 4 1 8 -5 8 -6 0 -13 11 -17 25 -3 14 -10 25 -16 25 -5 0 -6 4 -3 10 3 6
1 10 -5 10 -6 0 -9 4 -6 8 3 5 -8 28 -24 52 -16 24 -27 47 -24 52 3 4 0 8 -6
8 -6 0 -8 5 -5 10 3 6 1 10 -4 10 -6 0 -11 5 -11 11 0 7 -6 17 -14 23 -13 10
-60 97 -224 416 -36 69 -70 132 -77 140 -7 8 -18 32 -26 53 -7 20 -17 37 -21
37 -4 0 -8 4 -8 9 0 8 -84 170 -200 386 -24 44 -61 115 -84 159 -23 43 -51 97
-63 120 -21 39 -22 53 -22 299 l-1 257 -335 0 -335 0 0 -55z"/>
<path d="M3279 423 c-13 -16 -12 -17 4 -4 16 13 21 21 13 21 -2 0 -10 -8 -17
-17z"/>
</g>
</svg>
